<?xml version="1.0" encoding="UTF-8"?>
<svg xmlns="http://www.w3.org/2000/svg" xmlns:xlink="http://www.w3.org/1999/xlink" viewBox="0 0 384 384" width="384px" height="384px">
<g id="surface134931">
<path style=" stroke:none;fill-rule:nonzero;fill:rgb(20.392157%,67.450982%,87.843138%);fill-opacity:1;" d="M 228.800781 310.625 C 232.257812 301.519531 234.273438 291.136719 234.273438 280.015625 C 234.273438 245.953125 216.046875 218.257812 193.648438 218.257812 C 171.054688 218.257812 152.847656 245.953125 152.847656 280.015625 C 152.847656 290.945312 154.671875 301.328125 158.128906 310.257812 C 83.617188 318.097656 31.152344 349.246094 9.839844 363.265625 C 45.726562 311.519531 83.265625 250.863281 119.136719 181.089844 C 128.0625 163.777344 136.449219 146.65625 144.273438 129.902344 C 147.359375 131.902344 150.464844 134.097656 153.921875 136.289062 C 169.953125 146.304688 184.894531 151.777344 195.824219 154.6875 C 187.808594 148.671875 179.070312 141.390625 170.144531 132.464844 C 163.40625 125.726562 157.390625 118.976562 152.289062 112.417969 C 167.40625 79.265625 180.527344 47.375 192 17.136719 C 211.121094 67.777344 234.992188 122.976562 264.863281 181.089844 C 284.175781 218.433594 303.855469 253.230469 323.519531 285.296875 C 317.871094 282.207031 311.679688 279.28125 305.121094 276.734375 C 293.824219 272.367188 283.265625 269.632812 274.144531 268 C 286.527344 274.191406 300.929688 282.398438 316.046875 293.328125 C 325.886719 300.625 334.625 307.902344 342.097656 315.007812 C 342.273438 315.183594 342.273438 315.183594 342.464844 315.375 C 352.847656 332.320312 363.601562 347.984375 374.160156 363.28125 C 353.214844 349.425781 301.664062 318.816406 228.800781 310.625 Z M 228.800781 310.625 "/>
</g>
</svg>
